<svg width="24" height="24" viewBox="0 0 24 24" xmlns="http://www.w3.org/2000/svg"><title>E25E07D3-4AA8-495B-84E8-D17A94A0BFFF</title><g fill="#333" fill-rule="evenodd"><path d="M14.018 6.897L8.683 9.323 8 9.633 8.621 11l.683-.31 5.202-2.366a3.502 3.502 0 1 0-.488-1.427zm3.48 1.608a2.001 2.001 0 1 1 0-4.003 2.001 2.001 0 0 1 0 4.003zm-3.48 7.598l-5.335-2.426-.683-.31L8.621 12l.683.31 5.202 2.366a3.502 3.502 0 1 1-.488 1.427zm3.48-1.608a2.001 2.001 0 1 0 0 4.003 2.001 2.001 0 0 0 0-4.003z" fill-rule="nonzero"/><path d="M10 11.5a3.5 3.5 0 1 1-7 0 3.5 3.5 0 0 1 7 0zm-3.5 2a2 2 0 1 0 0-4 2 2 0 0 0 0 4z"/></g></svg>